<svg width="204" height="204" viewBox="0 0 204 204" fill="none" xmlns="http://www.w3.org/2000/svg">
<path d="M18.3895 201.058L18.4252 201.058L162.758 202.865C162.758 202.865 162.758 202.865 162.758 202.865C166.436 202.909 169.981 201.491 172.614 198.921L172.614 198.921C175.245 196.352 176.75 192.841 176.795 189.163V189.163C176.839 185.484 175.421 181.94 172.85 179.307L172.85 179.307C170.28 176.674 166.771 175.171 163.093 175.126L163.093 175.126L50.948 173.729L49.7619 173.714L50.6006 172.875L198.89 24.5853L198.896 24.5802C201.556 21.9951 203.07 18.4467 203.096 14.7374C203.122 11.0246 201.659 7.45837 199.035 4.83383C196.411 2.20929 192.843 0.745346 189.132 0.773422H189.131C185.421 0.797943 181.874 2.31267 179.287 4.97162L179.282 4.97656L30.9919 153.267L30.1532 154.106L30.1384 152.919L28.7412 40.7746C28.6966 37.096 27.1929 33.5868 24.5603 31.0166L24.9096 30.6588L24.5603 31.0166C21.9281 28.4463 18.3842 27.0265 14.7044 27.0724C11.0261 27.117 7.51521 28.619 4.94661 31.2527L4.94646 31.2528C2.3763 33.8858 0.958206 37.431 1.0041 41.1109L2.80624 185.517L2.80667 185.552L2.80237 185.586C2.25908 189.908 3.7758 194.234 6.90065 197.267L6.90398 197.271C6.90463 197.271 6.90535 197.272 6.90601 197.273C6.90627 197.273 6.90646 197.273 6.90672 197.273M18.3895 201.058L18.419 201.558C14.0741 202.128 9.7056 200.681 6.55611 197.63L6.90965 197.276L6.90672 197.273M18.3895 201.058L18.354 201.063C14.1618 201.612 9.94655 200.216 6.90672 197.273M18.3895 201.058L6.90672 197.273" fill="white" stroke="#D79662"/>
</svg>
