<svg width="50" height="50" viewBox="0 0 50 50" fill="none" xmlns="http://www.w3.org/2000/svg">
<g id="call " clip-path="url(#clip0_1_50)">
<path id="Vector" d="M28 23.0589C27.8172 22.876 27.7143 22.6281 27.7143 22.3691V10.2024C27.7143 9.66402 28.1514 9.22695 28.6898 9.22695C29.2282 9.22695 29.6653 9.66332 29.6653 10.2024V20.0151L47.2664 2.41403C47.6476 2.03328 48.2649 2.03328 48.6457 2.41403C49.0264 2.79478 49.0264 3.41254 48.6457 3.79324L31.0445 21.3944H40.8572C41.3957 21.3944 41.8327 21.8307 41.8327 22.3699C41.8327 22.9082 41.3957 23.3453 40.8572 23.3453H28.6906C28.4313 23.3446 28.1833 23.2422 28.0004 23.0589H28ZM48.4457 44.8417L47.666 45.6215C45.1306 48.1569 42.1146 49.6049 38.7017 49.9249C38.2181 49.9703 37.7262 49.9933 37.227 49.9933C34.7025 49.9933 31.9792 49.4151 29.1095 48.2673C21.7596 45.327 15.3801 39.4237 12.9784 37.022C10.5767 34.6202 4.67361 28.241 1.734 20.8909C0.359091 17.4535 -0.199056 14.2261 0.0756635 11.2991C0.395701 7.88664 1.84373 4.87028 4.37913 2.33489L5.15892 1.55511C7.15922 -0.445176 10.4133 -0.444426 12.4129 1.55511L17.8144 6.9566C19.8147 8.95686 19.8147 12.211 17.8144 14.2107L15.9853 16.0397C14.899 17.1257 14.7366 18.7764 15.5899 20.0531C17.4114 22.7791 19.5975 25.4239 22.0876 27.9135C24.5777 30.4036 27.2224 32.5894 29.948 34.4112C31.2256 35.2645 32.8755 35.1021 33.9614 34.0158L35.7905 32.1867C36.7572 31.22 38.045 30.6874 39.4176 30.6874C40.7896 30.6874 42.0781 31.22 43.0448 32.1867L48.4463 37.5882C50.4455 39.5871 50.4455 42.8412 48.4456 44.8415L48.4457 44.8417ZM47.0665 38.9666L41.665 33.5651C41.067 32.967 40.2686 32.6371 39.4174 32.6371C38.5663 32.6371 37.7679 32.9663 37.1699 33.5651L35.3407 35.3942C33.588 37.1469 30.9247 37.4092 28.864 36.0321C26.0327 34.14 23.2884 31.8723 20.7077 29.292C18.1273 26.7116 15.8603 23.9677 13.9676 21.1357C12.5905 19.075 12.8528 16.4116 14.6055 14.659L16.4346 12.8298C17.6738 11.5907 17.6738 9.57393 16.4346 8.33467L11.0331 2.9332C10.4131 2.31324 9.59939 2.00345 8.78555 2.00345C7.97172 2.00345 7.15718 2.31324 6.53799 2.9332L5.7582 3.71298C1.59041 7.88214 0.84612 13.4171 3.54538 20.1671C6.35033 27.1812 12.0411 33.3263 14.3581 35.6427C16.6744 37.959 22.8198 43.6499 29.8347 46.4555C36.5839 49.1548 42.1193 48.4097 46.287 44.2423L47.0667 43.4625C48.3055 42.2222 48.3055 40.2059 47.0664 38.9663L47.0665 38.9666Z" fill="white"/>
</g>
<defs>
<clipPath id="clip0_1_50">
<rect width="50" height="50" fill="white"/>
</clipPath>
</defs>
</svg>
