<svg width="132" height="24" viewBox="0 0 132 24" fill="none" xmlns="http://www.w3.org/2000/svg">
<line x1="1" y1="4.37114e-08" x2="0.999999" y2="24" stroke="#D79662" stroke-width="2"/>
<line x1="11" y1="4.37114e-08" x2="11" y2="24" stroke="#D79662" stroke-width="2"/>
<line x1="21" y1="4.37114e-08" x2="21" y2="24" stroke="#D79662" stroke-width="2"/>
<line x1="31" y1="4.37114e-08" x2="31" y2="24" stroke="#D79662" stroke-width="2"/>
<line x1="41" y1="4.37114e-08" x2="41" y2="24" stroke="#D79662" stroke-width="2"/>
<line x1="51" y1="4.37114e-08" x2="51" y2="24" stroke="#D79662" stroke-width="2"/>
<line x1="61" y1="4.37114e-08" x2="61" y2="24" stroke="#D79662" stroke-width="2"/>
<line x1="71" y1="4.37114e-08" x2="71" y2="24" stroke="#D79662" stroke-width="2"/>
<line x1="81" y1="4.37114e-08" x2="81" y2="24" stroke="#D79662" stroke-width="2"/>
<line x1="91" y1="4.37114e-08" x2="91" y2="24" stroke="#D79662" stroke-width="2"/>
<line x1="101" y1="4.37114e-08" x2="101" y2="24" stroke="#D79662" stroke-width="2"/>
<line x1="111" y1="4.37114e-08" x2="111" y2="24" stroke="#D79662" stroke-width="2"/>
<line x1="121" y1="4.37114e-08" x2="121" y2="24" stroke="#D79662" stroke-width="2"/>
<line x1="131" y1="4.37114e-08" x2="131" y2="24" stroke="#D79662" stroke-width="2"/>
</svg>
