<svg width="62" height="80" viewBox="0 0 62 80" fill="none" xmlns="http://www.w3.org/2000/svg">
<g id="Group">
<g id="Group_2">
<path id="Vector" d="M10.6601 79.9999C10.5958 79.9999 10.5333 79.9749 10.4869 79.9284L0.0714235 69.5201C0.0249975 69.4737 0 69.413 0 69.3469V0.249023C0 0.113316 0.108922 0.00439453 0.244628 0.00439453H34.1159C34.1802 0.00439453 34.2427 0.0311776 34.2891 0.075818L44.7046 10.4842C44.7511 10.5306 44.776 10.5913 44.776 10.6574V45.2072C44.776 45.3429 44.6671 45.4518 44.5314 45.4518H27.5913C27.527 45.4518 27.4645 45.425 27.4181 45.3804L17.0098 34.9721C16.9401 34.9024 16.9187 34.7971 16.9562 34.706C16.9937 34.6149 17.083 34.5542 17.183 34.5542H33.8695V10.902H10.9047V79.7552C10.9047 79.8535 10.8458 79.9427 10.753 79.982C10.7226 79.9945 10.6923 79.9999 10.6601 79.9999ZM0.489262 69.2451L10.4137 79.1642V10.6574C10.4137 10.5217 10.5226 10.4127 10.6583 10.4127H34.1142C34.2499 10.4127 34.3588 10.5217 34.3588 10.6574V34.7989C34.3588 34.9346 34.2499 35.0435 34.1142 35.0435H17.7758L27.6949 44.9626H44.2886V10.7591L34.0177 0.495438H0.489262V69.2451Z" fill="white"/>
</g>
<g id="Group_3">
<path id="Vector_2" d="M10.662 10.9021C10.5995 10.9021 10.537 10.8788 10.4888 10.8306L0.076834 0.418727C-0.0195892 0.324089 -0.0195892 0.16874 0.076834 0.0723174C0.173257 -0.0241058 0.32682 -0.0241058 0.423243 0.0723174L10.8352 10.4842C10.9316 10.5789 10.9316 10.7342 10.8352 10.8306C10.7869 10.8788 10.7244 10.9021 10.662 10.9021Z" fill="white"/>
</g>
<g id="Group_4">
<path id="Vector_3" d="M61.4715 79.9981H27.6002C27.5359 79.9981 27.4734 79.9714 27.427 79.9267L17.0115 69.5184C16.9419 69.4487 16.9205 69.3434 16.958 69.2523C16.9955 69.1613 17.0847 69.1005 17.1847 69.1005H50.8114V0.24729C50.8114 0.149081 50.8703 0.0597994 50.9632 0.0205159C51.0542 -0.0187676 51.1596 0.00444592 51.2292 0.0740848L61.6447 10.4824C61.6911 10.5289 61.7161 10.5896 61.7161 10.6556V79.7535C61.7179 79.8874 61.6072 79.9981 61.4715 79.9981ZM27.702 79.5071H61.2269V10.7556L51.3024 0.836543V69.3434C51.3024 69.4791 51.1935 69.588 51.0578 69.588H17.7776L27.702 79.5071Z" fill="white"/>
</g>
<g id="Group_5">
<path id="Vector_4" d="M61.468 79.9997C61.4055 79.9997 61.343 79.9765 61.2948 79.9283L50.8829 69.5164C50.7864 69.4217 50.7864 69.2664 50.8829 69.17C50.9793 69.0736 51.1329 69.0736 51.2293 69.17L61.6412 79.5819C61.7358 79.6765 61.7358 79.8319 61.6412 79.9283C61.5948 79.9765 61.5323 79.9997 61.468 79.9997Z" fill="white"/>
</g>
<g id="Group_6">
<path id="Vector_5" d="M44.5314 10.9019H34.1159C33.9802 10.9019 33.8713 10.7929 33.8713 10.6572C33.8713 10.5215 33.9802 10.4126 34.1159 10.4126H44.5314C44.6671 10.4126 44.776 10.5215 44.776 10.6572C44.776 10.7929 44.6671 10.9019 44.5314 10.9019Z" fill="white"/>
</g>
<g id="Group_7">
<path id="Vector_6" d="M44.5279 45.4553C44.4654 45.4553 44.4029 45.4321 44.3547 45.3839L33.9427 34.9719C33.8463 34.8773 33.8463 34.722 33.9427 34.6255C34.0392 34.5291 34.1927 34.5291 34.2891 34.6255L44.7011 45.0375C44.7975 45.1321 44.7975 45.2874 44.7011 45.3839C44.6528 45.4303 44.5904 45.4553 44.5279 45.4553Z" fill="white"/>
</g>
</g>
</svg>
