<svg width="337" height="86" viewBox="0 0 337 86" fill="none" xmlns="http://www.w3.org/2000/svg">
<path d="M10.6601 79.9999C10.5958 79.9999 10.5333 79.9749 10.4869 79.9285L0.0714235 69.5201C0.0249975 69.4737 0 69.413 0 69.3469V0.249023C0 0.113316 0.108922 0.00439453 0.244628 0.00439453H34.1159C34.1802 0.00439453 34.2427 0.0311776 34.2891 0.075818L44.7046 10.4842C44.751 10.5306 44.776 10.5913 44.776 10.6574V45.2072C44.776 45.3429 44.6671 45.4518 44.5314 45.4518H27.5913C27.527 45.4518 27.4645 45.425 27.4181 45.3804L17.0098 34.9721C16.9401 34.9024 16.9187 34.7971 16.9562 34.706C16.9937 34.6149 17.083 34.5542 17.183 34.5542H33.8695V10.902H10.9047V79.7552C10.9047 79.8535 10.8458 79.9427 10.753 79.982C10.7226 79.9945 10.6923 79.9999 10.6601 79.9999ZM0.489262 69.2451L10.4137 79.1642V10.6574C10.4137 10.5217 10.5226 10.4127 10.6583 10.4127H34.1142C34.2499 10.4127 34.3588 10.5217 34.3588 10.6574V34.7989C34.3588 34.9346 34.2499 35.0435 34.1142 35.0435H17.7758L27.6949 44.9626H44.2886V10.7591L34.0177 0.495438H0.489262V69.2451Z" fill="white"/>
<path d="M10.662 10.9021C10.5995 10.9021 10.537 10.8788 10.4888 10.8306L0.0768339 0.418727C-0.0195892 0.324089 -0.0195892 0.16874 0.0768339 0.0723173C0.173257 -0.0241058 0.32682 -0.0241058 0.423243 0.0723173L10.8352 10.4842C10.9316 10.5789 10.9316 10.7342 10.8352 10.8306C10.7869 10.8788 10.7244 10.9021 10.662 10.9021Z" fill="white"/>
<path d="M61.4715 79.9981H27.6002C27.5359 79.9981 27.4734 79.9714 27.427 79.9267L17.0115 69.5184C16.9419 69.4487 16.9205 69.3434 16.958 69.2523C16.9955 69.1613 17.0847 69.1005 17.1847 69.1005H50.8114V0.24729C50.8114 0.149081 50.8703 0.0597994 50.9632 0.0205159C51.0542 -0.0187676 51.1596 0.00444592 51.2292 0.0740848L61.6447 10.4824C61.6911 10.5289 61.7161 10.5896 61.7161 10.6556V79.7535C61.7179 79.8874 61.6072 79.9981 61.4715 79.9981ZM27.702 79.5071H61.2269V10.7556L51.3024 0.836543V69.3434C51.3024 69.4791 51.1935 69.588 51.0578 69.588H17.7775L27.702 79.5071Z" fill="white"/>
<path d="M61.468 79.9997C61.4055 79.9997 61.343 79.9765 61.2948 79.9283L50.8829 69.5164C50.7864 69.4217 50.7864 69.2664 50.8829 69.17C50.9793 69.0736 51.1329 69.0736 51.2293 69.17L61.6412 79.5819C61.7358 79.6765 61.7358 79.8319 61.6412 79.9283C61.5948 79.9765 61.5323 79.9997 61.468 79.9997Z" fill="white"/>
<path d="M44.5314 10.9019H34.1159C33.9802 10.9019 33.8713 10.7929 33.8713 10.6572C33.8713 10.5215 33.9802 10.4126 34.1159 10.4126H44.5314C44.6671 10.4126 44.776 10.5215 44.776 10.6572C44.776 10.7929 44.6671 10.9019 44.5314 10.9019Z" fill="white"/>
<path d="M44.5279 45.4553C44.4654 45.4553 44.4029 45.4321 44.3547 45.3839L33.9427 34.9719C33.8463 34.8773 33.8463 34.722 33.9427 34.6255C34.0392 34.5291 34.1927 34.5291 34.2891 34.6255L44.7011 45.0375C44.7975 45.1321 44.7975 45.2874 44.7011 45.3839C44.6528 45.4303 44.5904 45.4553 44.5279 45.4553Z" fill="white"/>
<path d="M86.6458 22.4194V30.2696C86.6458 30.7464 86.3706 30.9834 85.8229 30.9834C85.2752 30.9834 85 30.7464 85 30.2696V11.7437C85 11.2668 85.2752 11.0298 85.8229 11.0298H91.5777C92.9373 11.0298 94.1008 11.4467 95.0708 12.2777C96.0409 13.1115 96.5259 14.117 96.5259 15.2968V18.166C96.5259 19.3459 96.0436 20.3513 95.079 21.1769C94.1144 22.0053 92.9482 22.4194 91.5777 22.4194H86.6458ZM86.6458 20.9916H91.5777C92.4768 20.9916 93.2507 20.7164 93.9046 20.1633C94.5559 19.6129 94.8828 18.9453 94.8828 18.166V15.2968C94.8828 14.5175 94.5559 13.8472 93.9046 13.2914C93.2534 12.7355 92.4768 12.4548 91.5777 12.4548H86.6458V20.9916Z" fill="white"/>
<path d="M101.455 21.0218V29.5722H108.853C109.401 29.5722 109.676 29.8092 109.676 30.2861C109.676 30.7629 109.401 31 108.853 31H100.635C100.087 31 99.812 30.7629 99.812 30.2861V11.7329C99.812 11.2561 100.087 11.019 100.635 11.019H108.853C109.401 11.019 109.676 11.2561 109.676 11.7329C109.676 12.2098 109.401 12.4468 108.853 12.4468H101.455V19.5967H105.564C106.112 19.5967 106.387 19.8337 106.387 20.3106C106.387 20.7874 106.112 21.0245 105.564 21.0245H101.455V21.0218Z" fill="white"/>
<path d="M119.308 22.4194L124.354 29.9262C124.431 30.0515 124.469 30.1741 124.469 30.2968C124.469 30.4875 124.384 30.651 124.215 30.7899C124.044 30.9289 123.845 30.997 123.616 30.997C123.33 30.997 123.106 30.8771 122.943 30.6401L117.42 22.4194H114.591V30.2831C114.591 30.76 114.316 30.997 113.768 30.997C113.221 30.997 112.945 30.76 112.945 30.2831V11.73C112.945 11.2532 113.221 11.0161 113.768 11.0161H119.523C120.894 11.0161 122.06 11.433 123.025 12.2641C123.989 13.0979 124.471 14.1088 124.471 15.2968V18.1524C124.471 19.3976 123.973 20.4221 122.975 21.2205C121.975 22.0216 120.755 22.4194 119.308 22.4194ZM114.591 20.9916H119.523C120.433 20.9916 121.21 20.7164 121.858 20.1633C122.504 19.6128 122.828 18.9398 122.828 18.1524V15.2968C122.828 14.5066 122.504 13.8335 121.858 13.2777C121.213 12.7218 120.433 12.4439 119.523 12.4439H114.591V20.9916Z" fill="white"/>
<path d="M129.4 21.0218V29.5722H136.798C137.346 29.5722 137.621 29.8092 137.621 30.2861C137.621 30.7629 137.346 31 136.798 31H128.58C128.033 31 127.757 30.7629 127.757 30.2861V11.7329C127.757 11.2561 128.033 11.019 128.58 11.019H136.798C137.346 11.019 137.621 11.2561 137.621 11.7329C137.621 12.2098 137.346 12.4468 136.798 12.4468H129.4V19.5967H133.509C134.057 19.5967 134.332 19.8337 134.332 20.3106C134.332 20.7874 134.057 21.0245 133.509 21.0245H129.4V21.0218Z" fill="white"/>
<path d="M152.398 30.2833C152.398 30.7602 152.123 30.9972 151.575 30.9972H145.823C144.463 30.9972 143.302 30.5776 142.338 29.7411C141.373 28.9046 140.891 27.8964 140.891 26.7166V15.2997C140.891 14.1198 141.373 13.1117 142.338 12.2752C143.302 11.4387 144.463 11.019 145.823 11.019H151.575C152.123 11.019 152.398 11.2561 152.398 11.7329C152.398 12.2098 152.123 12.4468 151.575 12.4468H145.823C144.924 12.4468 144.153 12.7275 143.504 13.2888C142.858 13.8501 142.534 14.5204 142.534 15.3024V26.7193C142.534 27.4986 142.858 28.1689 143.504 28.7302C144.15 29.2915 144.924 29.5722 145.823 29.5722H150.755V21.0218H148.305C147.757 21.0218 147.482 20.7847 147.482 20.3079C147.482 19.831 147.757 19.594 148.305 19.594H151.575C152.123 19.594 152.398 19.831 152.398 20.3079V30.2833Z" fill="white"/>
<path d="M167.21 26.7166C167.21 27.9046 166.728 28.9155 165.763 29.7493C164.798 30.5831 163.632 30.9972 162.262 30.9972H160.619C159.259 30.9972 158.098 30.5776 157.134 29.7411C156.169 28.9046 155.687 27.8964 155.687 26.7166V15.2997C155.687 14.1198 156.169 13.1117 157.134 12.2752C158.098 11.4387 159.259 11.019 160.619 11.019H162.262C163.632 11.019 164.798 11.4359 165.763 12.267C166.728 13.1008 167.21 14.1117 167.21 15.2997V26.7166ZM165.567 26.7166V15.2997C165.567 14.5095 165.243 13.8365 164.597 13.2806C163.951 12.7248 163.172 12.4468 162.262 12.4468H160.619C159.719 12.4468 158.948 12.7275 158.3 13.2888C157.654 13.8501 157.33 14.5204 157.33 15.3024V26.7193C157.33 27.4986 157.654 28.1689 158.3 28.7302C158.945 29.2915 159.719 29.5722 160.619 29.5722H162.262C163.172 29.5722 163.948 29.2942 164.597 28.7356C165.243 28.1798 165.567 27.5068 165.567 26.7166Z" fill="white"/>
<path d="M176.842 22.4194L181.888 29.9262C181.965 30.0515 182.003 30.1741 182.003 30.2968C182.003 30.4875 181.918 30.651 181.749 30.7899C181.578 30.9289 181.379 30.997 181.15 30.997C180.864 30.997 180.64 30.8771 180.477 30.6401L174.954 22.4194H172.125V30.2831C172.125 30.76 171.85 30.997 171.302 30.997C170.755 30.997 170.48 30.76 170.48 30.2831V11.73C170.48 11.2532 170.755 11.0161 171.302 11.0161H177.057C178.428 11.0161 179.594 11.433 180.559 12.2641C181.523 13.0979 182.005 14.1088 182.005 15.2968V18.1524C182.005 19.3976 181.507 20.4221 180.51 21.2205C179.51 22.0216 178.289 22.4194 176.842 22.4194ZM172.125 20.9916H177.057C177.967 20.9916 178.744 20.7164 179.392 20.1633C180.038 19.6128 180.362 18.9398 180.362 18.1524V15.2968C180.362 14.5066 180.038 13.8335 179.392 13.2777C178.747 12.7218 177.967 12.4439 177.057 12.4439H172.125V20.9916Z" fill="white"/>
<path d="M196.798 26.7166C196.798 27.9046 196.316 28.9155 195.351 29.7493C194.387 30.5831 193.221 30.9972 191.85 30.9972H190.207C188.847 30.9972 187.687 30.5776 186.722 29.7411C185.757 28.9046 185.275 27.8964 185.275 26.7166V15.2997C185.275 14.1198 185.757 13.1117 186.722 12.2752C187.687 11.4387 188.847 11.019 190.207 11.019H191.85C193.221 11.019 194.387 11.4359 195.351 12.267C196.316 13.1008 196.798 14.1117 196.798 15.2997V26.7166ZM195.155 26.7166V15.2997C195.155 14.5095 194.831 13.8365 194.185 13.2806C193.539 12.7248 192.76 12.4468 191.85 12.4468H190.207C189.308 12.4468 188.537 12.7275 187.888 13.2888C187.242 13.8501 186.918 14.5204 186.918 15.3024V26.7193C186.918 27.4986 187.242 28.1689 187.888 28.7302C188.534 29.2915 189.308 29.5722 190.207 29.5722H191.85C192.76 29.5722 193.537 29.2942 194.185 28.7356C194.831 28.1798 195.155 27.5068 195.155 26.7166Z" fill="white"/>
<path d="M211.594 26.7164C211.594 27.9044 211.112 28.9153 210.147 29.7491C209.182 30.5829 208.016 30.997 206.646 30.997H200.891C200.343 30.997 200.068 30.76 200.068 30.2831V11.73C200.068 11.2532 200.343 11.0161 200.891 11.0161H206.646C208.016 11.0161 209.182 11.433 210.147 12.2641C211.112 13.0979 211.594 14.1088 211.594 15.2968V26.7164ZM209.948 26.7164V15.2995C209.948 14.5093 209.624 13.8363 208.978 13.2804C208.332 12.7246 207.553 12.4466 206.643 12.4466H201.711V29.572H206.643C207.553 29.572 208.33 29.294 208.978 28.7354C209.627 28.1796 209.948 27.5066 209.948 26.7164Z" fill="white"/>
<path d="M216.507 23.376V30.2834C216.507 30.7602 216.232 30.9973 215.684 30.9973C215.136 30.9973 214.861 30.7602 214.861 30.2834V11.7302C214.861 11.2534 215.136 11.0163 215.684 11.0163C216.232 11.0163 216.507 11.2534 216.507 11.7302V20.9918L224.907 11.2997C225.082 11.1008 225.297 11 225.548 11C225.766 11 225.965 11.0736 226.139 11.2207C226.313 11.3678 226.403 11.5368 226.403 11.7275C226.403 11.8801 226.343 12.0218 226.221 12.1553L220.368 18.9046L226.302 29.9809C226.357 30.0872 226.384 30.1962 226.384 30.3106C226.384 30.7684 226.098 30.9945 225.529 30.9945C225.21 30.9945 224.975 30.8556 224.82 30.5804L219.248 20.1907L216.507 23.376Z" fill="white"/>
<path d="M231.302 30.2831C231.302 30.76 231.027 30.997 230.479 30.997C229.932 30.997 229.657 30.76 229.657 30.2831V11.73C229.657 11.2532 229.932 11.0161 230.479 11.0161C231.027 11.0161 231.302 11.2532 231.302 11.73V30.2831Z" fill="white"/>
<path d="M241.133 30.9974C240.738 30.9974 240.474 30.7821 240.343 30.3543L234.591 11.9429C234.569 11.8666 234.559 11.7958 234.559 11.7277C234.559 11.2699 234.839 11.041 235.398 11.041C235.804 11.041 236.06 11.2181 236.169 11.5696L241.133 27.4388L246.098 11.5696C246.207 11.2181 246.466 11.041 246.869 11.041C247.428 11.041 247.708 11.2699 247.708 11.7277C247.708 11.793 247.697 11.8666 247.676 11.9429L241.924 30.3543C241.79 30.7849 241.529 30.9974 241.133 30.9974Z" fill="white"/>
<path d="M258.425 30.997H251.85C251.302 30.997 251.027 30.76 251.027 30.2831V11.73C251.027 11.2532 251.302 11.0161 251.85 11.0161C252.398 11.0161 252.673 11.2532 252.673 11.73V29.5692H258.425C258.973 29.5692 259.248 29.8063 259.248 30.2831C259.248 30.76 258.973 30.997 258.425 30.997Z" fill="white"/>
<path d="M274.057 26.7166C274.057 27.9046 273.575 28.9155 272.61 29.7493C271.646 30.5831 270.479 30.9972 269.109 30.9972H267.466C266.106 30.9972 264.945 30.5776 263.981 29.7411C263.016 28.9046 262.534 27.8964 262.534 26.7166V15.2997C262.534 14.1198 263.016 13.1117 263.981 12.2752C264.945 11.4387 266.106 11.019 267.466 11.019H269.109C270.479 11.019 271.646 11.4359 272.61 12.267C273.575 13.1008 274.057 14.1117 274.057 15.2997V26.7166ZM272.414 26.7166V15.2997C272.414 14.5095 272.09 13.8365 271.444 13.2806C270.798 12.7248 270.019 12.4468 269.109 12.4468H267.466C266.567 12.4468 265.796 12.7275 265.15 13.2888C264.504 13.8501 264.18 14.5204 264.18 15.3024V26.7193C264.18 27.4986 264.504 28.1689 265.15 28.7302C265.796 29.2915 266.569 29.5722 267.466 29.5722H269.109C270.019 29.5722 270.798 29.2942 271.444 28.7356C272.09 28.1771 272.414 27.5068 272.414 26.7166Z" fill="white"/>
<path d="M278.973 19.5938H286.37C286.918 19.5938 287.193 19.8308 287.193 20.3077C287.193 20.7845 286.918 21.0216 286.37 21.0216H278.973V30.2831C278.973 30.76 278.697 30.997 278.15 30.997C277.602 30.997 277.327 30.76 277.327 30.2831V11.73C277.327 11.2532 277.602 11.0161 278.15 11.0161H286.37C286.918 11.0161 287.193 11.2532 287.193 11.73C287.193 12.2068 286.918 12.4439 286.37 12.4439H278.973V19.5938Z" fill="white"/>
<path d="M295.411 12.4439H291.302C290.755 12.4439 290.479 12.2068 290.479 11.73C290.479 11.2532 290.755 11.0161 291.302 11.0161H301.182C301.73 11.0161 302.005 11.2532 302.005 11.73C302.005 12.2068 301.73 12.4439 301.182 12.4439H297.054V30.2831C297.054 30.76 296.779 30.997 296.232 30.997C295.684 30.997 295.409 30.76 295.409 30.2831V12.4439H295.411Z" fill="white"/>
<path d="M306.098 29.5693C306.646 29.5693 306.921 29.8064 306.921 30.2832C306.921 30.7601 306.646 30.9971 306.098 30.9971C305.55 30.9971 305.275 30.7601 305.275 30.2832C305.275 29.8091 305.55 29.5693 306.098 29.5693Z" fill="white"/>
<path d="M316.567 22.4194L321.613 29.9262C321.689 30.0515 321.727 30.1741 321.727 30.2968C321.727 30.4875 321.643 30.651 321.471 30.7899C321.302 30.9289 321.101 30.997 320.872 30.997C320.586 30.997 320.362 30.8771 320.196 30.6401L314.673 22.4194H311.845V30.2831C311.845 30.76 311.569 30.997 311.022 30.997C310.474 30.997 310.199 30.76 310.199 30.2831V11.73C310.199 11.2532 310.474 11.0161 311.022 11.0161H316.774C318.144 11.0161 319.311 11.433 320.275 12.2641C321.24 13.0979 321.722 14.1088 321.722 15.2968V18.1524C321.722 19.3976 321.223 20.4221 320.226 21.2205C319.237 22.0216 318.016 22.4194 316.567 22.4194ZM311.85 20.9916H316.782C317.692 20.9916 318.471 20.7164 319.117 20.1633C319.763 19.6128 320.087 18.9398 320.087 18.1524V15.2968C320.087 14.5066 319.763 13.8335 319.117 13.2777C318.471 12.7218 317.692 12.4439 316.782 12.4439H311.85V20.9916Z" fill="white"/>
<path d="M336.526 26.7167C336.526 27.9047 336.043 28.9156 335.079 29.7494C334.114 30.5831 332.948 30.9973 331.578 30.9973H329.934C328.575 30.9973 327.414 30.5777 326.449 29.7412C325.485 28.9047 325.003 27.8965 325.003 26.7167V11.7303C325.003 11.2535 325.278 11.0164 325.826 11.0164C326.373 11.0164 326.648 11.2535 326.648 11.7303V26.7167C326.648 27.496 326.973 28.1663 327.618 28.7276C328.264 29.2889 329.038 29.5695 329.934 29.5695H331.578C332.488 29.5695 333.267 29.2916 333.913 28.733C334.558 28.1772 334.883 27.5041 334.883 26.7139V11.7276C334.883 11.2507 335.155 11.0137 335.706 11.0137C336.253 11.0137 336.529 11.2507 336.529 11.7276V26.7167H336.526Z" fill="white"/>
<path d="M87.301 66H86.209V56.9H87.301L90.239 61.515L93.177 56.9H94.23V66H93.138V58.902L90.59 62.906H89.849L87.301 58.915V66ZM96.7745 66H95.7345V65.623L99.1275 56.9H100.259L103.665 65.623V66H102.547L101.637 63.582H97.7105L96.7745 66ZM99.6735 58.408L98.0485 62.62H101.286L99.6735 58.408ZM106.307 66H105.176V56.9H106.307V60.93H107.763L110.402 56.9H111.455V57.277L108.751 61.372L111.624 65.623V66H110.506L107.776 61.931H106.307V66ZM116.233 66.195C115.132 66.195 114.274 65.909 113.659 65.337C113.052 64.7563 112.749 63.9503 112.749 62.919V59.981C112.749 58.9497 113.052 58.148 113.659 57.576C114.274 56.9953 115.132 56.705 116.233 56.705C117.177 56.705 117.966 56.9693 118.599 57.498C119.231 58.0267 119.548 58.7937 119.548 59.799V59.929H118.417V59.799C118.417 59.1317 118.196 58.6247 117.754 58.278C117.32 57.9227 116.809 57.745 116.22 57.745C115.466 57.745 114.885 57.9357 114.478 58.317C114.079 58.6897 113.88 59.2183 113.88 59.903V62.997C113.88 63.6817 114.079 64.2147 114.478 64.596C114.885 64.9687 115.466 65.155 116.22 65.155C116.809 65.155 117.32 64.9773 117.754 64.622C118.196 64.2753 118.417 63.7683 118.417 63.101V62.971H119.548V63.101C119.548 64.1063 119.231 64.8733 118.599 65.402C117.966 65.9307 117.177 66.195 116.233 66.195ZM122.618 66H121.578V56.9H122.709V64.037L127.272 56.9H128.312V66H127.181V58.863L122.618 66ZM131.823 66H130.731V56.9H131.823L134.761 61.515L137.699 56.9H138.752V66H137.66V58.902L135.112 62.906H134.371L131.823 58.915V66ZM142.337 66V65.623L143.338 63.543L140.127 57.277V56.9H141.18L143.91 62.282L146.276 56.9H147.277V57.277L143.416 66H142.337ZM149.749 66H148.657V56.9H149.749L152.687 61.515L155.625 56.9H156.678V66H155.586V58.902L153.038 62.906H152.297L149.749 58.915V66ZM165.554 66.195C164.453 66.195 163.595 65.909 162.98 65.337C162.373 64.7563 162.07 63.9503 162.07 62.919V59.981C162.07 58.9497 162.373 58.148 162.98 57.576C163.595 56.9953 164.453 56.705 165.554 56.705C166.499 56.705 167.287 56.9693 167.92 57.498C168.553 58.0267 168.869 58.7937 168.869 59.799V59.929H167.738V59.799C167.738 59.1317 167.517 58.6247 167.075 58.278C166.642 57.9227 166.13 57.745 165.541 57.745C164.787 57.745 164.206 57.9357 163.799 58.317C163.4 58.6897 163.201 59.2183 163.201 59.903V62.997C163.201 63.6817 163.4 64.2147 163.799 64.596C164.206 64.9687 164.787 65.155 165.541 65.155C166.13 65.155 166.642 64.9773 167.075 64.622C167.517 64.2753 167.738 63.7683 167.738 63.101V62.971H168.869V63.101C168.869 64.1063 168.553 64.8733 167.92 65.402C167.287 65.9307 166.499 66.195 165.554 66.195ZM175.046 66H170.899V56.9H174.721C175.501 56.9 176.104 57.108 176.528 57.524C176.953 57.9313 177.165 58.5207 177.165 59.292C177.165 60.2713 176.771 60.93 175.982 61.268C177.005 61.5627 177.516 62.3123 177.516 63.517C177.516 64.3143 177.3 64.9297 176.866 65.363C176.433 65.7877 175.826 66 175.046 66ZM172.03 61.879V64.999H174.851C175.345 64.999 175.722 64.8647 175.982 64.596C176.251 64.3273 176.385 63.946 176.385 63.452C176.385 62.9493 176.251 62.5637 175.982 62.295C175.722 62.0177 175.345 61.879 174.851 61.879H172.03ZM172.03 57.901V60.917H174.552C175.029 60.917 175.393 60.787 175.644 60.527C175.904 60.2583 176.034 59.8857 176.034 59.409C176.034 58.9237 175.904 58.551 175.644 58.291C175.393 58.031 175.02 57.901 174.526 57.901H172.03ZM185.099 66H179.418V56.9H185.086V57.901H180.549V60.917H184.475V61.918H180.549V64.999H185.099V66ZM190 66H188.869V57.901H186.1V56.9H192.756V57.901H190V66ZM193.678 66H192.638V65.623L196.031 56.9H197.162L200.568 65.623V66H199.45L198.54 63.582H194.614L193.678 66ZM196.577 58.408L194.952 62.62H198.189L196.577 58.408ZM206.356 66H205.316V56.9H206.447V64.037L211.01 56.9H212.05V66H210.919V58.863L206.356 66ZM221.854 66H217.707V56.9H221.529C222.309 56.9 222.911 57.108 223.336 57.524C223.761 57.9313 223.973 58.5207 223.973 59.292C223.973 60.2713 223.579 60.93 222.79 61.268C223.813 61.5627 224.324 62.3123 224.324 63.517C224.324 64.3143 224.107 64.9297 223.674 65.363C223.241 65.7877 222.634 66 221.854 66ZM218.838 61.879V64.999H221.659C222.153 64.999 222.53 64.8647 222.79 64.596C223.059 64.3273 223.193 63.946 223.193 63.452C223.193 62.9493 223.059 62.5637 222.79 62.295C222.53 62.0177 222.153 61.879 221.659 61.879H218.838ZM218.838 57.901V60.917H221.36C221.837 60.917 222.201 60.787 222.452 60.527C222.712 60.2583 222.842 59.8857 222.842 59.409C222.842 58.9237 222.712 58.551 222.452 58.291C222.201 58.031 221.828 57.901 221.334 57.901H218.838ZM229.463 65.155C230.199 65.155 230.776 64.96 231.192 64.57C231.616 64.1713 231.829 63.6427 231.829 62.984V59.916C231.829 59.2573 231.616 58.733 231.192 58.343C230.776 57.9443 230.199 57.745 229.463 57.745C228.717 57.745 228.137 57.9443 227.721 58.343C227.305 58.733 227.097 59.2573 227.097 59.916V62.984C227.097 63.6427 227.305 64.1713 227.721 64.57C228.137 64.96 228.717 65.155 229.463 65.155ZM225.966 62.932V59.968C225.966 58.954 226.278 58.1567 226.902 57.576C227.534 56.9953 228.388 56.705 229.463 56.705C230.537 56.705 231.387 56.9953 232.011 57.576C232.643 58.1567 232.96 58.954 232.96 59.968V62.932C232.96 63.946 232.643 64.7433 232.011 65.324C231.387 65.9047 230.537 66.195 229.463 66.195C228.388 66.195 227.534 65.9047 226.902 65.324C226.278 64.7433 225.966 63.946 225.966 62.932ZM238.011 66.195C237.015 66.195 236.2 65.9307 235.567 65.402C234.926 64.8647 234.601 64.0977 234.592 63.101H235.723C235.732 63.751 235.949 64.258 236.373 64.622C236.798 64.9773 237.357 65.155 238.05 65.155C238.692 65.155 239.186 65.0077 239.532 64.713C239.888 64.4097 240.065 63.9807 240.065 63.426C240.065 62.932 239.896 62.5463 239.558 62.269C239.229 61.9917 238.77 61.853 238.18 61.853H236.906V60.852H238.18C238.7 60.852 239.103 60.7263 239.389 60.475C239.684 60.215 239.831 59.851 239.831 59.383C239.831 58.8977 239.662 58.5033 239.324 58.2C238.995 57.8967 238.536 57.745 237.946 57.745C237.322 57.745 236.828 57.9227 236.464 58.278C236.1 58.6333 235.918 59.1403 235.918 59.799H234.787C234.805 58.7763 235.099 58.0093 235.671 57.498C236.252 56.9693 237.01 56.705 237.946 56.705C238.9 56.705 239.641 56.9433 240.169 57.42C240.707 57.9053 240.975 58.525 240.975 59.279C240.975 60.2843 240.512 60.9647 239.584 61.32C240.07 61.45 240.46 61.7013 240.754 62.074C241.049 62.438 241.196 62.8887 241.196 63.426C241.196 64.2667 240.91 64.9383 240.338 65.441C239.775 65.9437 238.999 66.195 238.011 66.195ZM243.293 67.859H242.253V64.999H242.942C243.202 64.6523 243.397 64.3577 243.527 64.115C243.925 63.3697 244.125 62.2603 244.125 60.787V56.9H249.481V64.999H250.599V67.859H249.559V66H243.293V67.859ZM244.164 64.999H248.35V57.901H245.165V60.787C245.165 61.5583 245.108 62.2257 244.996 62.789C244.892 63.361 244.779 63.79 244.658 64.076C244.562 64.2927 244.398 64.6003 244.164 64.999ZM253.472 66V65.623L254.473 63.543L251.262 57.277V56.9H252.315L255.045 62.282L257.411 56.9H258.412V57.277L254.551 66H253.472ZM260.091 66H259.012V65.623L261.963 61.333L259.168 57.277V56.9H260.312L262.665 60.449L265.096 56.9H266.162V57.277L263.354 61.333L266.331 65.623V66H265.187L262.639 62.23L260.091 66ZM268.098 66H267.058V65.623L270.451 56.9H271.582L274.988 65.623V66H273.87L272.96 63.582H269.034L268.098 66ZM270.997 58.408L269.372 62.62H272.609L270.997 58.408ZM283.883 66H279.736V56.9H283.558C284.338 56.9 284.941 57.108 285.365 57.524C285.79 57.9313 286.002 58.5207 286.002 59.292C286.002 60.2713 285.608 60.93 284.819 61.268C285.842 61.5627 286.353 62.3123 286.353 63.517C286.353 64.3143 286.137 64.9297 285.703 65.363C285.27 65.7877 284.663 66 283.883 66ZM280.867 61.879V64.999H283.688C284.182 64.999 284.559 64.8647 284.819 64.596C285.088 64.3273 285.222 63.946 285.222 63.452C285.222 62.9493 285.088 62.5637 284.819 62.295C284.559 62.0177 284.182 61.879 283.688 61.879H280.867ZM280.867 57.901V60.917H283.389C283.866 60.917 284.23 60.787 284.481 60.527C284.741 60.2583 284.871 59.8857 284.871 59.409C284.871 58.9237 284.741 58.551 284.481 58.291C284.23 58.031 283.857 57.901 283.363 57.901H280.867ZM291.687 67.859H290.647V64.999H291.336C291.596 64.6523 291.791 64.3577 291.921 64.115C292.32 63.3697 292.519 62.2603 292.519 60.787V56.9H297.875V64.999H298.993V67.859H297.953V66H291.687V67.859ZM292.558 64.999H296.744V57.901H293.559V60.787C293.559 61.5583 293.503 62.2257 293.39 62.789C293.286 63.361 293.174 63.79 293.052 64.076C292.957 64.2927 292.792 64.6003 292.558 64.999ZM303.933 65.155C304.67 65.155 305.246 64.96 305.662 64.57C306.087 64.1713 306.299 63.6427 306.299 62.984V59.916C306.299 59.2573 306.087 58.733 305.662 58.343C305.246 57.9443 304.67 57.745 303.933 57.745C303.188 57.745 302.607 57.9443 302.191 58.343C301.775 58.733 301.567 59.2573 301.567 59.916V62.984C301.567 63.6427 301.775 64.1713 302.191 64.57C302.607 64.96 303.188 65.155 303.933 65.155ZM300.436 62.932V59.968C300.436 58.954 300.748 58.1567 301.372 57.576C302.005 56.9953 302.859 56.705 303.933 56.705C305.008 56.705 305.857 56.9953 306.481 57.576C307.114 58.1567 307.43 58.954 307.43 59.968V62.932C307.43 63.946 307.114 64.7433 306.481 65.324C305.857 65.9047 305.008 66.195 303.933 66.195C302.859 66.195 302.005 65.9047 301.372 65.324C300.748 64.7433 300.436 63.946 300.436 62.932ZM310.675 66H309.583V56.9H310.675L313.613 61.515L316.551 56.9H317.604V66H316.512V58.902L313.964 62.906H313.223L310.675 58.915V66ZM325.7 66H320.019V56.9H325.687V57.901H321.15V60.917H325.076V61.918H321.15V64.999H325.7V66ZM87.249 82H86.209V72.9H87.34V80.037L91.903 72.9H92.943V82H91.812V74.863L87.249 82ZM101.837 81.155C102.573 81.155 103.15 80.96 103.566 80.57C103.99 80.1713 104.203 79.6427 104.203 78.984V75.916C104.203 75.2573 103.99 74.733 103.566 74.343C103.15 73.9443 102.573 73.745 101.837 73.745C101.091 73.745 100.511 73.9443 100.095 74.343C99.6786 74.733 99.4706 75.2573 99.4706 75.916V78.984C99.4706 79.6427 99.6786 80.1713 100.095 80.57C100.511 80.96 101.091 81.155 101.837 81.155ZM98.3396 78.932V75.968C98.3396 74.954 98.6516 74.1567 99.2756 73.576C99.9083 72.9953 100.762 72.705 101.837 72.705C102.911 72.705 103.761 72.9953 104.385 73.576C105.017 74.1567 105.334 74.954 105.334 75.968V78.932C105.334 79.946 105.017 80.7433 104.385 81.324C103.761 81.9047 102.911 82.195 101.837 82.195C100.762 82.195 99.9083 81.9047 99.2756 81.324C98.6516 80.7433 98.3396 79.946 98.3396 78.932ZM112.283 82.156H111.152V80.908H110.476C109.462 80.908 108.626 80.635 107.967 80.089C107.3 79.543 106.966 78.7933 106.966 77.84V76.891C106.966 75.929 107.3 75.175 107.967 74.629C108.626 74.083 109.462 73.81 110.476 73.81H111.152V72.718H112.283V73.81H112.972C113.986 73.81 114.823 74.083 115.481 74.629C116.14 75.175 116.469 75.929 116.469 76.891V77.84C116.469 78.7933 116.14 79.543 115.481 80.089C114.823 80.635 113.986 80.908 112.972 80.908H112.283V82.156ZM110.424 79.907H111.152V74.811H110.424C109.722 74.811 109.159 75.006 108.734 75.396C108.31 75.7773 108.097 76.28 108.097 76.904V77.801C108.097 78.4163 108.31 78.9233 108.734 79.322C109.159 79.712 109.722 79.907 110.424 79.907ZM112.283 74.811V79.907H113.024C113.726 79.907 114.29 79.712 114.714 79.322C115.139 78.9233 115.351 78.4163 115.351 77.801V76.904C115.351 76.28 115.139 75.7773 114.714 75.396C114.29 75.006 113.726 74.811 113.024 74.811H112.283ZM119.419 82H118.379V72.9H119.51V80.037L124.073 72.9H125.113V82H123.982V74.863L119.419 82ZM130.756 82.195C129.656 82.195 128.798 81.909 128.182 81.337C127.576 80.7563 127.272 79.9503 127.272 78.919V75.981C127.272 74.9497 127.576 74.148 128.182 73.576C128.798 72.9953 129.656 72.705 130.756 72.705C131.701 72.705 132.49 72.9693 133.122 73.498C133.755 74.0267 134.071 74.7937 134.071 75.799V75.929H132.94V75.799C132.94 75.1317 132.719 74.6247 132.277 74.278C131.844 73.9227 131.333 73.745 130.743 73.745C129.989 73.745 129.409 73.9357 129.001 74.317C128.603 74.6897 128.403 75.2183 128.403 75.903V78.997C128.403 79.6817 128.603 80.2147 129.001 80.596C129.409 80.9687 129.989 81.155 130.743 81.155C131.333 81.155 131.844 80.9773 132.277 80.622C132.719 80.2753 132.94 79.7683 132.94 79.101V78.971H134.071V79.101C134.071 80.1063 133.755 80.8733 133.122 81.402C132.49 81.9307 131.701 82.195 130.756 82.195ZM141.783 82H136.102V72.9H141.77V73.901H137.233V76.917H141.159V77.918H137.233V80.999H141.783V82Z" fill="white"/>
</svg>
