<svg width="20" height="20" viewBox="0 0 20 20" fill="none" xmlns="http://www.w3.org/2000/svg">
<g id="arrow right 2 2" clip-path="url(#clip0_1_120)">
<g id="Group">
<g id="Group_2">
<path id="Vector" d="M19.6803 9.22288L12.4576 2.00001C12.2514 1.79383 11.9767 1.68066 11.6836 1.68066C11.3903 1.68066 11.1157 1.794 10.9095 2.00001L10.2537 2.65594C10.0477 2.86179 9.93423 3.13675 9.93423 3.42992C9.93423 3.72292 10.0477 4.00715 10.2537 4.213L14.4674 8.43589H1.08048C0.476907 8.43589 0 8.90841 0 9.51215V10.4395C0 11.0432 0.476907 11.5633 1.08048 11.5633H14.5152L10.2539 15.8098C10.0479 16.016 9.93439 16.2835 9.93439 16.5766C9.93439 16.8695 10.0479 17.1409 10.2539 17.3469L10.9097 18.0007C11.1158 18.2069 11.3905 18.3192 11.6838 18.3192C11.9768 18.3192 12.2516 18.2054 12.4578 17.9992L19.6805 10.7765C19.8872 10.5697 20.0008 10.2936 20 10.0001C20.0007 9.70564 19.8872 9.42938 19.6803 9.22288Z" fill="#858585"/>
</g>
</g>
</g>
<defs>
<clipPath id="clip0_1_120">
<rect width="20" height="20" fill="white"/>
</clipPath>
</defs>
</svg>
