<svg width="20" height="20" viewBox="0 0 20 20" fill="none" xmlns="http://www.w3.org/2000/svg">
<g id="arrow right 2 2" clip-path="url(#clip0_1_117)">
<g id="Group">
<g id="Group_2">
<path id="Vector" d="M0.319671 9.22288L7.54238 2.00001C7.74855 1.79383 8.02335 1.68066 8.31635 1.68066C8.60969 1.68066 8.88432 1.794 9.09049 2.00001L9.74626 2.65594C9.95228 2.86179 10.0658 3.13675 10.0658 3.42992C10.0658 3.72292 9.95228 4.00715 9.74626 4.213L5.53264 8.43589H18.9195C19.5231 8.43589 20 8.90841 20 9.51215V10.4395C20 11.0432 19.5231 11.5633 18.9195 11.5633H5.48483L9.7461 15.8098C9.95211 16.016 10.0656 16.2835 10.0656 16.5766C10.0656 16.8695 9.95211 17.1409 9.7461 17.3469L9.09033 18.0007C8.88415 18.2069 8.60952 18.3192 8.31619 18.3192C8.02319 18.3192 7.74839 18.2054 7.54222 17.9992L0.319509 10.7765C0.112844 10.5697 -0.000813477 10.2936 -4.75763e-07 10.0001C-0.000650877 9.70564 0.112843 9.42938 0.319671 9.22288Z" fill="#858585"/>
</g>
</g>
</g>
<defs>
<clipPath id="clip0_1_117">
<rect width="20" height="20" fill="white" transform="matrix(-1 0 0 1 20 0)"/>
</clipPath>
</defs>
</svg>
