<svg width="42" height="42" viewBox="0 0 42 42" fill="none" xmlns="http://www.w3.org/2000/svg">
<g id="size">
<path id="Vector" d="M5.41587 4.71387C5.23673 4.71387 5.05764 4.78408 4.92095 4.92077C4.78427 5.05745 4.71405 5.23654 4.71405 5.41569V10.3239C4.71405 10.5172 4.79428 10.6921 4.92095 10.8188C5.04763 10.9455 5.21164 11.0148 5.40494 11.0148C5.59824 11.0148 5.78412 10.9455 5.9108 10.8188C6.03747 10.6921 6.10615 10.5072 6.10676 10.3139L6.11679 7.10645L20.0101 20.9998L6.11679 34.8932L6.10676 31.6857C6.10615 31.4924 6.03747 31.3075 5.9108 31.1808C5.78412 31.0541 5.59824 30.9848 5.40494 30.9848C5.21164 30.9848 5.04763 31.0541 4.92095 31.1808C4.79428 31.3075 4.71405 31.4824 4.71405 31.6757V36.5839C4.71405 36.7631 4.78427 36.9422 4.92095 37.0788C5.05764 37.2155 5.23673 37.2857 5.41587 37.2857H10.3241C10.5174 37.2857 10.6923 37.2055 10.819 37.0788C10.9457 36.9522 11.015 36.7882 11.015 36.5949C11.015 36.4016 10.9457 36.2157 10.819 36.089C10.6923 35.9623 10.5073 35.8936 10.3141 35.893L7.10663 35.883L21 21.9896L34.8933 35.883L31.6859 35.893C31.4926 35.8936 31.3077 35.9623 31.181 36.089C31.0543 36.2157 30.985 36.4016 30.985 36.5949C30.985 36.7882 31.0543 36.9522 31.181 37.0788C31.3077 37.2055 31.4826 37.2857 31.6759 37.2857H36.5841C36.7633 37.2857 36.9423 37.2155 37.079 37.0788C37.2157 36.9422 37.2859 36.7631 37.2859 36.5839V31.6757C37.2859 31.4824 37.2057 31.3075 37.079 31.1808C36.9524 31.0541 36.7883 30.9848 36.595 30.9848C36.4017 30.9848 36.2159 31.0541 36.0892 31.1808C35.9625 31.3075 35.8938 31.4924 35.8932 31.6857L35.8832 34.8932L21.9898 20.9998L35.8832 7.10645L35.8932 10.3139C35.8938 10.5072 35.9625 10.6921 36.0892 10.8188C36.2159 10.9455 36.4017 11.0148 36.595 11.0148C36.7883 11.0148 36.9523 10.9455 37.079 10.8188C37.2057 10.6921 37.2859 10.5172 37.2859 10.3239V5.41569C37.2859 5.23654 37.2157 5.05745 37.079 4.92077C36.9423 4.78408 36.7632 4.71387 36.5841 4.71387H31.6759C31.4826 4.71387 31.3077 4.79409 31.181 4.92077C31.0543 5.04744 30.985 5.21145 30.985 5.40475C30.985 5.59805 31.0543 5.78394 31.181 5.91061C31.3077 6.03729 31.4926 6.10597 31.6859 6.10658L34.8933 6.1166L21 20.01L7.10663 6.1166L10.3141 6.10658C10.5073 6.10597 10.6923 6.03729 10.819 5.91061C10.9457 5.78394 11.015 5.59805 11.015 5.40475C11.015 5.21146 10.9457 5.04744 10.819 4.92077C10.6923 4.79409 10.5174 4.71387 10.3241 4.71387L5.41587 4.71387Z" fill="black"/>
<path id="Vector_2" d="M41.3 42C41.6866 42 42 41.6866 42 41.3V0.7C42 0.313399 41.6866 0 41.3 0H0.7C0.313401 0 0 0.313399 0 0.7V41.3C0 41.6866 0.313401 42 0.7 42H41.3ZM40.6 40.6H1.4V1.4H40.6V40.6Z" fill="black"/>
</g>
</svg>
