<svg width="43" height="42" viewBox="0 0 43 42" fill="none" xmlns="http://www.w3.org/2000/svg">
<g id="metal-profile">
<path id="Vector" d="M41.664 24.1921C41.454 24.1081 41.244 24.1921 41.076 24.3601L34.44 32.3401H33.81V24.6541C33.81 24.4441 33.684 24.2341 33.474 24.1921C33.264 24.1081 33.054 24.1921 32.886 24.3601L25.746 32.9701C25.662 33.0541 25.62 33.1801 25.62 33.3061V41.4961C25.62 41.7901 25.83 42.0001 26.124 42.0001H34.314C34.398 42.0001 34.44 42.0001 34.524 41.9581C34.524 41.9581 34.566 41.9581 34.566 41.9161C34.608 41.8741 34.65 41.8741 34.692 41.8321L41.874 33.1801C41.958 33.0961 42 32.9701 42 32.8441V24.6541C42 24.4441 41.874 24.2761 41.664 24.1921ZM32.76 26.0821V32.8441C32.76 33.1381 32.97 33.3481 33.264 33.3481H33.768V40.9501H26.628V33.4741L32.76 26.0821ZM40.992 32.6761L34.818 40.0681V33.4741L34.986 33.2641C35.07 33.2221 35.154 33.1381 35.196 33.0121L40.992 26.0401V32.6761Z" fill="black"/>
<path id="Vector_2" d="M41.916 0.252C41.916 0.252 41.916 0.21 41.874 0.21C41.832 0.126 41.748 0.084 41.664 0.042C41.664 0.042 41.664 0.042 41.622 0.042C41.58 0 41.538 0 41.496 0H37.296C37.128 0 37.002 0.084 36.918 0.168L28.77 9.996C28.728 9.996 28.728 9.996 28.686 9.996H25.536V6.72L30.366 0.84C30.492 0.672 30.534 0.462 30.45 0.294C30.324 0.126 30.156 0 29.946 0H25.83C25.662 0 25.536 0.084 25.452 0.168L18.984 8.022V0.798C18.984 0.588 18.858 0.378 18.648 0.336C18.438 0.252 18.228 0.336 18.06 0.504L8.316 12.474C8.232 12.558 8.19 12.684 8.19 12.81V20.496H1.596L10.71 9.324C10.794 9.24 10.836 9.114 10.836 8.988V0.798C10.836 0.588 10.71 0.378 10.5 0.336C10.29 0.252 10.08 0.336 9.912 0.504L0.126 12.474C0.042 12.558 0 12.684 0 12.81V21C0 21.084 0.042 21.168 0.084 21.252C0.084 21.252 0.084 21.294 0.126 21.294C0.168 21.378 0.252 21.42 0.336 21.462C0.378 21.462 0.462 21.504 0.504 21.504H7.854L0.126 30.912C0.084 30.954 0.084 30.954 0.084 30.996C0.084 31.038 0.042 31.038 0.042 31.08C0.042 31.122 0.042 31.164 0.042 31.206V41.454C0.042 41.748 0.252 41.958 0.546 41.958H15.918C16.002 41.958 16.044 41.958 16.128 41.916L16.17 41.874C16.212 41.832 16.254 41.832 16.296 41.79L41.916 11.046C42 10.962 42.042 10.836 42.042 10.71V0.504C42 0.42 41.958 0.336 41.916 0.252ZM37.548 1.008H40.404L15.624 30.744H12.852L37.548 1.008ZM9.24 12.978L17.976 2.268V8.82L9.24 19.572V12.978ZM1.008 12.978L9.786 2.268V8.82L1.008 19.572V12.978ZM26.124 1.008H28.896L4.368 30.744H1.596L26.124 1.008ZM1.008 31.752H4.62C4.788 31.752 4.914 31.668 4.998 31.584L24.486 7.938V10.5C24.486 10.794 24.696 11.004 24.99 11.004H27.888L11.382 30.912C11.256 31.08 11.214 31.29 11.298 31.458C11.382 31.626 11.55 31.752 11.76 31.752H15.33V35.322V40.95H1.008V31.752ZM40.992 10.584L16.38 40.068V31.416L40.992 1.932V10.584Z" fill="black"/>
<path id="Vector_3" d="M11.76 32.7598C9.744 32.7598 8.19 33.8938 8.19 35.3218C8.19 36.7498 9.786 37.8838 11.76 37.8838C13.734 37.8838 15.33 36.7498 15.33 35.3218C15.372 33.8938 13.776 32.7598 11.76 32.7598ZM11.76 36.8758C10.374 36.8758 9.198 36.1618 9.198 35.3218C9.198 34.4818 10.374 33.7678 11.76 33.7678C13.146 33.7678 14.322 34.4818 14.322 35.3218C14.322 36.1618 13.188 36.8758 11.76 36.8758Z" fill="black"/>
</g>
</svg>
