<svg width="20" height="20" viewBox="0 0 20 20" fill="none" xmlns="http://www.w3.org/2000/svg">
<g id="viber (1) 2" clip-path="url(#clip0_1_47)">
<path id="Vector" d="M19.2958 11.5773C19.8925 6.55478 19.0092 3.38394 17.4158 1.94978L17.4167 1.94894C14.845 -0.500224 6.16 -0.862724 3.08334 2.05894C1.70167 3.48811 1.21501 5.58561 1.16167 8.18228C1.10834 10.7798 1.04501 15.6456 5.57917 16.9656H5.58334L5.57917 18.9814C5.57917 18.9814 5.54834 19.7981 6.07 19.9623C6.66667 20.1556 6.93667 19.7764 8.7925 17.5598C11.8958 17.8289 14.2792 17.2123 14.55 17.1223C15.1767 16.9123 18.7225 16.4431 19.2958 11.5773ZM9.09834 16.1414C9.09834 16.1414 7.13417 18.5906 6.52334 19.2264C6.32334 19.4331 6.10417 19.4139 6.1075 19.0039C6.1075 18.7348 6.1225 15.6573 6.1225 15.6573C2.27834 14.5556 2.50501 10.4123 2.54667 8.24478C2.58834 6.07644 2.98501 4.30061 4.15501 3.10478C6.85417 0.573943 14.4683 1.13978 16.4083 2.96311C18.78 5.06561 17.9358 11.0056 17.9408 11.2081C17.4533 15.2698 14.58 15.5273 14.0517 15.7031C13.8258 15.7781 11.73 16.3173 9.09834 16.1414Z" fill="white"/>
<path id="Vector_2" d="M10.185 3.58105C9.86419 3.58105 9.86419 4.08105 10.185 4.08522C12.6742 4.10439 14.7242 5.83939 14.7467 9.02189C14.7467 9.35772 15.2384 9.35356 15.2342 9.01772C15.2075 5.58856 12.9684 3.60022 10.185 3.58105Z" fill="white"/>
<path id="Vector_3" d="M13.4592 8.4942C13.4517 8.82586 13.9425 8.8417 13.9467 8.50586C13.9875 6.61503 12.8217 5.05753 10.6309 4.89336C10.31 4.87003 10.2767 5.3742 10.5967 5.39753C12.4967 5.5417 13.4975 6.83836 13.4592 8.4942Z" fill="white"/>
<path id="Vector_4" d="M12.9341 10.6448C12.5225 10.4064 12.1033 10.5548 11.93 10.7889L11.5675 11.2581C11.3833 11.4964 11.0391 11.4648 11.0391 11.4648C8.52747 10.8006 7.85581 8.17226 7.85581 8.17226C7.85581 8.17226 7.82498 7.81643 8.05498 7.62559L8.50831 7.25059C8.73497 7.07059 8.87831 6.63726 8.64747 6.21143C8.03081 5.09726 7.61664 4.71309 7.40581 4.41809C7.18414 4.14059 6.85081 4.07809 6.50414 4.26559H6.49664C5.77581 4.68726 4.98664 5.47643 5.23914 6.28893C5.66997 7.14559 6.46164 9.87643 8.98497 11.9398C10.1708 12.9156 12.0475 13.9156 12.8441 14.1464L12.8516 14.1581C13.6366 14.4198 14.4 13.5998 14.8075 12.8573V12.8514C14.9883 12.4923 14.9283 12.1523 14.6641 11.9298C14.1958 11.4731 13.4891 10.9689 12.9341 10.6448Z" fill="white"/>
<path id="Vector_5" d="M10.9742 6.75323C11.775 6.7999 12.1634 7.21823 12.205 8.0774C12.22 8.41323 12.7075 8.3899 12.6925 8.05407C12.6392 6.9324 12.0542 6.3074 11.0009 6.24907C10.68 6.2299 10.65 6.73407 10.9742 6.75323Z" fill="white"/>
</g>
<defs>
<clipPath id="clip0_1_47">
<rect width="20" height="20" fill="white"/>
</clipPath>
</defs>
</svg>
